<?xml version="1.0" encoding="UTF-8" standalone="no"?><!DOCTYPE svg PUBLIC "-//W3C//DTD SVG 1.1//EN" "http://www.w3.org/Graphics/SVG/1.1/DTD/svg11.dtd"><svg width="100%" height="100%" viewBox="0 0 300 123" version="1.1" xmlns="http://www.w3.org/2000/svg" xmlns:xlink="http://www.w3.org/1999/xlink" xml:space="preserve" xmlns:serif="http://www.serif.com/" style="fill-rule:evenodd;clip-rule:evenodd;stroke-linecap:round;stroke-linejoin:round;stroke-miterlimit:1.5;"><rect id="Монтажная-область1" serif:id="Монтажная область1" x="0" y="0" width="300" height="123" style="fill:none;"/><rect x="0" y="0" width="300" height="123" style="fill:#fff;"/><rect x="8.942" y="10.512" width="18.844" height="18.844" style="fill:#729fcf;stroke:#3465a4;stroke-width:0.5px;"/><rect x="8.942" y="31.521" width="18.844" height="18.844" style="fill:#729fcf;stroke:#3465a4;stroke-width:0.5px;"/><rect x="8.942" y="52.531" width="18.844" height="18.844" style="fill:#729fcf;stroke:#3465a4;stroke-width:0.5px;"/><rect x="8.942" y="73.54" width="18.844" height="18.844" style="fill:#729fcf;stroke:#3465a4;stroke-width:0.5px;"/><rect x="55.684" y="10.512" width="18.844" height="18.844" style="fill:#729fcf;stroke:#3465a4;stroke-width:0.5px;"/><rect x="55.684" y="31.521" width="18.844" height="18.844" style="fill:#729fcf;stroke:#3465a4;stroke-width:0.5px;"/><rect x="55.684" y="52.531" width="18.844" height="18.844" style="fill:#729fcf;stroke:#3465a4;stroke-width:0.5px;"/><rect x="55.684" y="73.54" width="18.844" height="18.844" style="fill:#729fcf;stroke:#3465a4;stroke-width:0.5px;"/><rect x="109.911" y="10.512" width="18.844" height="18.844" style="fill:#729fcf;stroke:#3465a4;stroke-width:0.5px;"/><rect x="109.911" y="31.521" width="18.844" height="18.844" style="fill:#729fcf;stroke:#3465a4;stroke-width:0.5px;"/><rect x="109.911" y="52.531" width="18.844" height="18.844" style="fill:#729fcf;stroke:#3465a4;stroke-width:0.5px;"/><rect x="109.911" y="73.54" width="18.844" height="18.844" style="fill:#729fcf;stroke:#3465a4;stroke-width:0.5px;"/><path d="M96.397,19.526l-7.223,0l0,0.816l7.223,0l0,-0.816Zm0,-2.342l-7.223,0l0,0.817l7.223,0l0,-0.817Z"/><path d="M96.397,40.535l-7.223,-0l0,0.817l7.223,-0l0,-0.817Zm0,-2.341l-7.223,-0l0,0.817l7.223,-0l0,-0.817Z"/><path d="M96.397,61.545l-7.223,0l0,0.816l7.223,0l0,-0.816Zm0,-2.341l-7.223,0l0,0.816l7.223,0l0,-0.816Z"/><path d="M96.397,82.554l-7.223,0l0,0.817l7.223,0l0,-0.817Zm0,-2.341l-7.223,0l0,0.817l7.223,0l0,-0.817Z"/><path d="M42.916,17.956l-0,-3.203l-0.816,0l-0,3.203l-3.204,0l-0,0.817l3.204,0l-0,3.203l0.816,0l-0,-3.203l3.204,0l-0,-0.817l-3.204,0Z"/><path d="M42.916,38.966l-0,-3.204l-0.816,0l-0,3.204l-3.204,0l-0,0.816l3.204,0l-0,3.204l0.816,0l-0,-3.204l3.204,0l-0,-0.816l-3.204,0Z"/><path d="M42.916,59.975l-0,-3.203l-0.816,0l-0,3.203l-3.204,0l-0,0.817l3.204,0l-0,3.204l0.816,0l-0,-3.204l3.204,0l-0,-0.817l-3.204,0Z"/><path d="M42.916,80.985l-0,-3.203l-0.816,0l-0,3.203l-3.204,0l-0,0.817l3.204,0l-0,3.203l0.816,0l-0,-3.203l3.204,0l-0,-0.817l-3.204,0Z"/><rect x="163.569" y="12.677" width="18.844" height="18.844" style="fill:#729fcf;stroke:#3465a4;stroke-width:0.5px;"/><rect x="210.312" y="12.677" width="18.844" height="18.844" style="fill:#729fcf;stroke:#3465a4;stroke-width:0.5px;"/><rect x="264.538" y="12.677" width="18.844" height="18.844" style="fill:#729fcf;stroke:#3465a4;stroke-width:0.5px;"/><rect x="163.569" y="31.521" width="18.844" height="18.844" style="fill:#729fcf;stroke:#3465a4;stroke-width:0.5px;"/><rect x="210.312" y="31.521" width="18.844" height="18.844" style="fill:#729fcf;stroke:#3465a4;stroke-width:0.5px;"/><rect x="264.538" y="31.521" width="18.844" height="18.844" style="fill:#729fcf;stroke:#3465a4;stroke-width:0.5px;"/><rect x="163.569" y="50.365" width="18.844" height="18.844" style="fill:#729fcf;stroke:#3465a4;stroke-width:0.5px;"/><rect x="210.312" y="50.365" width="18.844" height="18.844" style="fill:#729fcf;stroke:#3465a4;stroke-width:0.5px;"/><rect x="264.538" y="50.365" width="18.844" height="18.844" style="fill:#729fcf;stroke:#3465a4;stroke-width:0.5px;"/><rect x="163.569" y="69.21" width="18.844" height="18.844" style="fill:#729fcf;stroke:#3465a4;stroke-width:0.5px;"/><rect x="210.312" y="69.21" width="18.844" height="18.844" style="fill:#729fcf;stroke:#3465a4;stroke-width:0.5px;"/><rect x="264.538" y="69.21" width="18.844" height="18.844" style="fill:#729fcf;stroke:#3465a4;stroke-width:0.5px;"/><path d="M251.025,51.526l-7.224,0l0,0.817l7.224,0l0,-0.817Zm0,-2.341l-7.224,0l0,0.817l7.224,0l0,-0.817Z"/><path d="M197.544,49.957l0,-3.203l-0.817,0l0,3.203l-3.203,0l0,0.817l3.203,0l0,3.203l0.817,0l0,-3.203l3.203,0l0,-0.817l-3.203,0Z"/><text x="14.771px" y="24.101px" style="font-family:'Consolas', monospace;font-size:13px;">1</text><text x="14.771px" y="45.111px" style="font-family:'Consolas', monospace;font-size:13px;">2</text><text x="14.771px" y="66.12px" style="font-family:'Consolas', monospace;font-size:13px;">3</text><text x="14.771px" y="87.13px" style="font-family:'Consolas', monospace;font-size:13px;">4</text><text x="61.514px" y="24.101px" style="font-family:'Consolas', monospace;font-size:13px;">1</text><text x="61.514px" y="45.111px" style="font-family:'Consolas', monospace;font-size:13px;">2</text><text x="61.514px" y="66.12px" style="font-family:'Consolas', monospace;font-size:13px;">3</text><text x="61.514px" y="87.13px" style="font-family:'Consolas', monospace;font-size:13px;">4</text><text x="115.74px" y="24.101px" style="font-family:'Consolas', monospace;font-size:13px;">2</text><text x="115.74px" y="45.111px" style="font-family:'Consolas', monospace;font-size:13px;">4</text><text x="115.74px" y="66.12px" style="font-family:'Consolas', monospace;font-size:13px;">6</text><text x="115.74px" y="87.13px" style="font-family:'Consolas', monospace;font-size:13px;">8</text><text x="169.399px" y="26.266px" style="font-family:'Consolas', monospace;font-size:13px;">1</text><text x="216.141px" y="26.266px" style="font-family:'Consolas', monospace;font-size:13px;">1</text><text x="270.367px" y="26.266px" style="font-family:'Consolas', monospace;font-size:13px;">2</text><text x="169.399px" y="45.111px" style="font-family:'Consolas', monospace;font-size:13px;">2</text><text x="216.141px" y="45.111px" style="font-family:'Consolas', monospace;font-size:13px;">2</text><text x="270.367px" y="45.111px" style="font-family:'Consolas', monospace;font-size:13px;">4</text><text x="169.399px" y="63.955px" style="font-family:'Consolas', monospace;font-size:13px;">3</text><text x="216.3px" y="63.955px" style="font-family:'Consolas', monospace;font-size:13px;">3</text><text x="270.367px" y="63.955px" style="font-family:'Consolas', monospace;font-size:13px;">6</text><text x="169.399px" y="82.799px" style="font-family:'Consolas', monospace;font-size:13px;">4</text><text x="216.141px" y="82.799px" style="font-family:'Consolas', monospace;font-size:13px;">4</text><text x="270.367px" y="82.799px" style="font-family:'Consolas', monospace;font-size:13px;">8</text><text x="47.748px" y="112.41px" style="font-family:'ArialMT', 'Arial', sans-serif;font-size:12px;">Scalar</text><g><text x="202.616px" y="112.264px" style="font-family:'ArialMT', 'Arial', sans-serif;font-size:12px;">V</text><text x="209.958px" y="112.264px" style="font-family:'ArialMT', 'Arial', sans-serif;font-size:12px;">ector</text></g></svg>